<svg width="680" height="160" viewBox="0 0 680 160" fill="none" xmlns="http://www.w3.org/2000/svg">
  <defs>
    <linearGradient id="bg" x1="0" y1="0" x2="1" y2="1">
      <stop offset="0%" stop-color="#2A3340"/>
      <stop offset="100%" stop-color="#202833"/>
    </linearGradient>
    <linearGradient id="accent" x1="0" y1="0" x2="1" y2="1">
      <stop offset="0%" stop-color="#6D86A3"/>
      <stop offset="100%" stop-color="#4F6682"/>
    </linearGradient>
  </defs>

  <rect x="0" y="0" width="680" height="160" rx="24" fill="url(#bg)"/>

  <rect x="30" y="28" width="104" height="104" rx="20" fill="#161C24" stroke="#3A4555" stroke-width="2"/>
  <circle cx="82" cy="80" r="26" fill="url(#accent)"/>
  <path d="M71 67L97 80L71 93V67Z" fill="#E6E8EB"/>
  <circle cx="82" cy="80" r="39" stroke="#4F6682" stroke-opacity="0.45" stroke-width="2"/>

  <g fill="#E6E8EB">
    <path d="M172.35 98V61.64H181.99L194.78 83.74L207.57 61.64H217.21V98H208.71V76.13L198.8 92.99H190.76L180.85 76.13V98H172.35Z"/>
    <path d="M239.22 98.72C236.04 98.72 233.27 98.1 230.9 96.85C228.54 95.6 226.7 93.84 225.39 91.57C224.08 89.27 223.42 86.59 223.42 83.53C223.42 80.47 224.08 77.8 225.39 75.53C226.7 73.23 228.54 71.45 230.9 70.2C233.27 68.95 236.04 68.33 239.22 68.33C242.43 68.33 245.22 68.95 247.59 70.2C249.99 71.45 251.84 73.23 253.15 75.53C254.46 77.8 255.12 80.47 255.12 83.53C255.12 86.59 254.46 89.27 253.15 91.57C251.84 93.84 249.99 95.6 247.59 96.85C245.22 98.1 242.43 98.72 239.22 98.72ZM239.22 91.45C241.3 91.45 242.96 90.76 244.2 89.39C245.45 87.99 246.07 86.03 246.07 83.53C246.07 81.03 245.45 79.1 244.2 77.73C242.96 76.33 241.3 75.63 239.22 75.63C237.2 75.63 235.58 76.33 234.34 77.73C233.09 79.1 232.46 81.03 232.46 83.53C232.46 86.03 233.09 87.99 234.34 89.39C235.58 90.76 237.2 91.45 239.22 91.45Z"/>
    <path d="M261.49 98V69.05H270.17V71.83C271.2 70.75 272.45 69.93 273.94 69.36C275.43 68.79 277.04 68.51 278.77 68.51C281.95 68.51 284.51 69.47 286.44 71.38C288.38 73.29 289.35 75.98 289.35 79.47V98H280.58V80.91C280.58 79.38 280.15 78.2 279.29 77.37C278.46 76.54 277.32 76.13 275.89 76.13C274.43 76.13 273.25 76.56 272.34 77.41C271.46 78.23 271.02 79.4 271.02 80.91V98H261.49Z"/>
    <path d="M297.5 98V61.64H307.12V76.67H324.43V61.64H334.05V98H324.43V84.84H307.12V98H297.5Z"/>
    <path d="M343.06 98V69.05H352.59V98H343.06ZM347.82 65.13C346.23 65.13 344.93 64.66 343.92 63.73C342.94 62.77 342.45 61.58 342.45 60.16C342.45 58.73 342.94 57.56 343.92 56.64C344.93 55.71 346.23 55.24 347.82 55.24C349.37 55.24 350.65 55.71 351.66 56.64C352.67 57.56 353.17 58.73 353.17 60.16C353.17 61.58 352.67 62.77 351.66 63.73C350.65 64.66 349.37 65.13 347.82 65.13Z"/>
    <path d="M373.42 98.72C370.24 98.72 367.47 98.1 365.1 96.85C362.74 95.6 360.9 93.84 359.59 91.57C358.28 89.27 357.62 86.59 357.62 83.53C357.62 80.47 358.28 77.8 359.59 75.53C360.9 73.23 362.74 71.45 365.1 70.2C367.47 68.95 370.24 68.33 373.42 68.33C376.63 68.33 379.42 68.95 381.79 70.2C384.19 71.45 386.04 73.23 387.35 75.53C388.66 77.8 389.32 80.47 389.32 83.53C389.32 86.59 388.66 89.27 387.35 91.57C386.04 93.84 384.19 95.6 381.79 96.85C379.42 98.1 376.63 98.72 373.42 98.72ZM373.42 91.45C375.5 91.45 377.16 90.76 378.4 89.39C379.65 87.99 380.27 86.03 380.27 83.53C380.27 81.03 379.65 79.1 378.4 77.73C377.16 76.33 375.5 75.63 373.42 75.63C371.4 75.63 369.78 76.33 368.54 77.73C367.29 79.1 366.66 81.03 366.66 83.53C366.66 86.03 367.29 87.99 368.54 89.39C369.78 90.76 371.4 91.45 373.42 91.45Z"/>
    <path d="M395.69 98V69.05H404.1V72.6C405.01 71.25 406.21 70.22 407.7 69.5C409.19 68.76 410.84 68.39 412.64 68.39C415.59 68.39 417.95 69.24 419.73 70.95L415.72 78.04C414.71 77.12 413.45 76.67 411.94 76.67C410.18 76.67 408.76 77.22 407.7 78.31C406.67 79.4 406.16 80.96 406.16 83V98H395.69Z"/>
    <path d="M425.12 98V69.05H433.53V72.6C434.44 71.25 435.64 70.22 437.13 69.5C438.62 68.76 440.27 68.39 442.07 68.39C445.02 68.39 447.38 69.24 449.16 70.95L445.15 78.04C444.14 77.12 442.88 76.67 441.37 76.67C439.61 76.67 438.19 77.22 437.13 78.31C436.1 79.4 435.59 80.96 435.59 83V98H425.12Z"/>
    <path d="M466.84 98.72C463.81 98.72 461.16 98.13 458.89 96.94C456.62 95.75 454.87 94.05 453.64 91.84C452.42 89.6 451.81 86.94 451.81 83.87C451.81 80.74 452.43 78.03 453.68 75.74C454.93 73.42 456.65 71.64 458.84 70.38C461.03 69.1 463.5 68.46 466.25 68.46C469.1 68.46 471.57 69.12 473.67 70.43C475.79 71.71 477.42 73.56 478.56 75.97C479.7 78.35 480.27 81.15 480.27 84.36V86.06H461.43C461.77 87.94 462.58 89.36 463.87 90.32C465.18 91.28 466.8 91.76 468.72 91.76C470.13 91.76 471.45 91.55 472.69 91.12C473.93 90.67 475.06 90 476.08 89.11L479.14 94.88C477.73 96.06 476 96.99 473.94 97.66C471.9 98.37 469.54 98.72 466.84 98.72ZM461.28 80.58H471.86C471.67 78.84 471.15 77.57 470.29 76.76C469.46 75.93 468.28 75.52 466.75 75.52C465.25 75.52 464.01 75.95 463.02 76.81C462.06 77.67 461.48 78.93 461.28 80.58Z"/>
    <path d="M486.73 98V69.05H495.14V72.29C496.15 71.02 497.43 70.06 498.99 69.4C500.55 68.73 502.24 68.39 504.05 68.39C506.94 68.39 509.29 69.15 511.11 70.66C512.92 72.17 513.83 74.21 513.83 76.76C513.83 79.09 513.03 80.95 511.42 82.34C509.82 83.73 507.43 84.57 504.25 84.86L496.34 85.54C496.53 88.91 498.52 90.59 502.32 90.59C503.85 90.59 505.4 90.35 506.96 89.86C508.55 89.34 509.96 88.62 511.2 87.7L513.51 93.44C512.14 94.55 510.41 95.42 508.33 96.04C506.24 96.69 504.1 97.01 501.91 97.01C497.15 97.01 493.49 95.73 490.94 93.17C488.39 90.61 487.11 87.03 487.11 82.43V69.05H486.73ZM496.29 80.76L502.25 80.22C504.36 80.03 505.41 79.21 505.41 77.75C505.41 76.21 504.22 75.45 501.84 75.45C498.57 75.45 496.73 77.22 496.29 80.76Z"/>
  </g>

  <text x="172" y="120" fill="#AAB0BB" font-family="DM Sans, Segoe UI, sans-serif" font-size="20" font-weight="600" letter-spacing="0.2px">
    Visual Media Bridge
  </text>
</svg>
